<svg width="25" height="24" viewBox="0 0 25 24" fill="none" xmlns="http://www.w3.org/2000/svg">
<path d="M19.4083 8.24993V17.9999C19.4083 18.1988 19.3293 18.3896 19.1886 18.5303C19.048 18.6709 18.8572 18.7499 18.6583 18.7499H8.90831C8.7094 18.7499 8.51864 18.6709 8.37799 18.5303C8.23733 18.3896 8.15831 18.1988 8.15831 17.9999C8.15831 17.801 8.23733 17.6103 8.37799 17.4696C8.51864 17.3289 8.7094 17.2499 8.90831 17.2499H16.848L6.12769 6.53055C5.98696 6.38982 5.9079 6.19895 5.9079 5.99993C5.9079 5.80091 5.98696 5.61003 6.12769 5.4693C6.26842 5.32857 6.45929 5.24951 6.65831 5.24951C6.85734 5.24951 7.04821 5.32857 7.18894 5.4693L17.9083 16.1896V8.24993C17.9083 8.05102 17.9873 7.86025 18.128 7.7196C18.2686 7.57895 18.4594 7.49993 18.6583 7.49993C18.8572 7.49993 19.048 7.57895 19.1886 7.7196C19.3293 7.86025 19.4083 8.05102 19.4083 8.24993Z" fill="white"/>
</svg>
