<svg width="25" height="25" viewBox="0 0 25 25" fill="none" xmlns="http://www.w3.org/2000/svg">
<path d="M19.4398 8.34368V18.0937C19.4398 18.2926 19.3608 18.4834 19.2201 18.624C19.0795 18.7647 18.8887 18.8437 18.6898 18.8437H8.93981C8.7409 18.8437 8.55013 18.7647 8.40948 18.624C8.26883 18.4834 8.18981 18.2926 8.18981 18.0937C8.18981 17.8948 8.26883 17.704 8.40948 17.5633C8.55013 17.4227 8.7409 17.3437 8.93981 17.3437H16.8795L6.15918 6.6243C6.01845 6.48357 5.93939 6.2927 5.93939 6.09368C5.93939 5.89466 6.01845 5.70378 6.15918 5.56305C6.29991 5.42232 6.49079 5.34326 6.68981 5.34326C6.88883 5.34326 7.0797 5.42232 7.22043 5.56305L17.9398 16.2834V8.34368C17.9398 8.14477 18.0188 7.954 18.1595 7.81335C18.3001 7.6727 18.4909 7.59368 18.6898 7.59368C18.8887 7.59368 19.0795 7.6727 19.2201 7.81335C19.3608 7.954 19.4398 8.14477 19.4398 8.34368Z" fill="white"/>
</svg>
