<svg width="20" height="16" viewBox="0 0 20 16" fill="none" xmlns="http://www.w3.org/2000/svg">
<path d="M17.8065 1.24902C18.0864 1.27671 18.3518 1.38715 18.5692 1.56543L18.6737 1.66016L18.7684 1.76465C18.9759 2.01807 19.0907 2.3366 19.0907 2.66699C19.0907 3.04464 18.9406 3.40671 18.6737 3.67383L8.00769 14.3398C7.87544 14.4722 7.71865 14.5777 7.54578 14.6494C7.37289 14.7211 7.18703 14.7578 6.99988 14.7578C6.81292 14.7578 6.62768 14.721 6.45496 14.6494C6.28213 14.5778 6.12527 14.4722 5.99304 14.3398L1.32703 9.67383C1.09331 9.44011 0.948307 9.13366 0.915894 8.80762L0.909058 8.66699L0.915894 8.52539C0.948345 8.19942 1.09336 7.89285 1.32703 7.65918C1.59415 7.39221 1.95619 7.24219 2.33386 7.24219L2.47449 7.24902C2.80052 7.28136 3.10694 7.42556 3.3407 7.65918H3.34167L6.99988 11.3184L16.6591 1.66016L16.7635 1.56543C17.017 1.35775 17.3354 1.24226 17.6659 1.24219L17.8065 1.24902Z" fill="#4373C7" stroke="#4373C7" stroke-width="1.51506"/>
</svg>
